<mxfile host="app.diagrams.net" agent="Mozilla/5.0 (Windows NT 10.0; Win64; x64) AppleWebKit/537.36 (KHTML, like Gecko) Chrome/140.0.0.0 Safari/537.36" version="28.2.3">
  <diagram name="Page-1" id="EpyfGNlJfESf9vqUO6Xq">
    <mxGraphModel dx="1042" dy="522" grid="1" gridSize="10" guides="1" tooltips="1" connect="1" arrows="1" fold="1" page="1" pageScale="1" pageWidth="850" pageHeight="1100" math="0" shadow="0">
      <root>
        <mxCell id="0" />
        <mxCell id="1" parent="0" />
        <mxCell id="OQFNa8gKAQg8WC0pTOx7-1" value="plan" style="rounded=0;whiteSpace=wrap;html=1;" vertex="1" parent="1">
          <mxGeometry x="150" y="20" width="120" height="50" as="geometry" />
        </mxCell>
        <mxCell id="OQFNa8gKAQg8WC0pTOx7-11" style="edgeStyle=orthogonalEdgeStyle;rounded=0;orthogonalLoop=1;jettySize=auto;html=1;exitX=0.55;exitY=0.95;exitDx=0;exitDy=0;exitPerimeter=0;entryX=0.5;entryY=0;entryDx=0;entryDy=0;" edge="1" parent="1" source="OQFNa8gKAQg8WC0pTOx7-2" target="OQFNa8gKAQg8WC0pTOx7-3">
          <mxGeometry relative="1" as="geometry" />
        </mxCell>
        <mxCell id="OQFNa8gKAQg8WC0pTOx7-2" value="develop" style="ellipse;shape=cloud;whiteSpace=wrap;html=1;" vertex="1" parent="1">
          <mxGeometry x="150" y="110" width="120" height="80" as="geometry" />
        </mxCell>
        <mxCell id="OQFNa8gKAQg8WC0pTOx7-13" style="edgeStyle=orthogonalEdgeStyle;rounded=0;orthogonalLoop=1;jettySize=auto;html=1;exitX=0.5;exitY=1;exitDx=0;exitDy=0;" edge="1" parent="1" source="OQFNa8gKAQg8WC0pTOx7-3" target="OQFNa8gKAQg8WC0pTOx7-6">
          <mxGeometry relative="1" as="geometry">
            <mxPoint x="210" y="290" as="targetPoint" />
            <Array as="points" />
          </mxGeometry>
        </mxCell>
        <mxCell id="OQFNa8gKAQg8WC0pTOx7-3" value="Build" style="rhombus;whiteSpace=wrap;html=1;" vertex="1" parent="1">
          <mxGeometry x="170" y="220" width="80" height="80" as="geometry" />
        </mxCell>
        <mxCell id="OQFNa8gKAQg8WC0pTOx7-15" style="edgeStyle=orthogonalEdgeStyle;rounded=0;orthogonalLoop=1;jettySize=auto;html=1;exitX=0.5;exitY=1;exitDx=0;exitDy=0;entryX=0.5;entryY=0;entryDx=0;entryDy=0;" edge="1" parent="1" source="OQFNa8gKAQg8WC0pTOx7-5" target="OQFNa8gKAQg8WC0pTOx7-7">
          <mxGeometry relative="1" as="geometry" />
        </mxCell>
        <mxCell id="OQFNa8gKAQg8WC0pTOx7-5" value="Release" style="shape=parallelogram;perimeter=parallelogramPerimeter;whiteSpace=wrap;html=1;fixedSize=1;" vertex="1" parent="1">
          <mxGeometry x="150" y="440" width="120" height="60" as="geometry" />
        </mxCell>
        <mxCell id="OQFNa8gKAQg8WC0pTOx7-14" style="edgeStyle=orthogonalEdgeStyle;rounded=0;orthogonalLoop=1;jettySize=auto;html=1;exitX=0.5;exitY=1;exitDx=0;exitDy=0;entryX=0.5;entryY=0;entryDx=0;entryDy=0;" edge="1" parent="1" source="OQFNa8gKAQg8WC0pTOx7-6" target="OQFNa8gKAQg8WC0pTOx7-5">
          <mxGeometry relative="1" as="geometry" />
        </mxCell>
        <mxCell id="OQFNa8gKAQg8WC0pTOx7-6" value="Test" style="ellipse;whiteSpace=wrap;html=1;" vertex="1" parent="1">
          <mxGeometry x="150" y="330" width="120" height="80" as="geometry" />
        </mxCell>
        <mxCell id="OQFNa8gKAQg8WC0pTOx7-17" style="edgeStyle=orthogonalEdgeStyle;rounded=0;orthogonalLoop=1;jettySize=auto;html=1;entryX=0.5;entryY=0;entryDx=0;entryDy=0;" edge="1" parent="1" source="OQFNa8gKAQg8WC0pTOx7-7" target="OQFNa8gKAQg8WC0pTOx7-8">
          <mxGeometry relative="1" as="geometry">
            <mxPoint x="210" y="660" as="targetPoint" />
          </mxGeometry>
        </mxCell>
        <mxCell id="OQFNa8gKAQg8WC0pTOx7-7" value="Deploy" style="shape=hexagon;perimeter=hexagonPerimeter2;whiteSpace=wrap;html=1;fixedSize=1;" vertex="1" parent="1">
          <mxGeometry x="150" y="540" width="120" height="80" as="geometry" />
        </mxCell>
        <mxCell id="OQFNa8gKAQg8WC0pTOx7-18" style="edgeStyle=orthogonalEdgeStyle;rounded=0;orthogonalLoop=1;jettySize=auto;html=1;entryX=0.5;entryY=0;entryDx=0;entryDy=0;" edge="1" parent="1" source="OQFNa8gKAQg8WC0pTOx7-8" target="OQFNa8gKAQg8WC0pTOx7-9">
          <mxGeometry relative="1" as="geometry" />
        </mxCell>
        <mxCell id="OQFNa8gKAQg8WC0pTOx7-8" value="Operate" style="shape=document;whiteSpace=wrap;html=1;boundedLbl=1;" vertex="1" parent="1">
          <mxGeometry x="150" y="680" width="120" height="80" as="geometry" />
        </mxCell>
        <mxCell id="OQFNa8gKAQg8WC0pTOx7-9" value="Monitor" style="shape=step;perimeter=stepPerimeter;whiteSpace=wrap;html=1;fixedSize=1;" vertex="1" parent="1">
          <mxGeometry x="150" y="820" width="120" height="80" as="geometry" />
        </mxCell>
        <mxCell id="OQFNa8gKAQg8WC0pTOx7-12" style="edgeStyle=orthogonalEdgeStyle;rounded=0;orthogonalLoop=1;jettySize=auto;html=1;exitX=0.5;exitY=1;exitDx=0;exitDy=0;entryX=0.493;entryY=0.083;entryDx=0;entryDy=0;entryPerimeter=0;" edge="1" parent="1" source="OQFNa8gKAQg8WC0pTOx7-1" target="OQFNa8gKAQg8WC0pTOx7-2">
          <mxGeometry relative="1" as="geometry" />
        </mxCell>
      </root>
    </mxGraphModel>
  </diagram>
</mxfile>
